<svg xmlns="http://www.w3.org/2000/svg" viewBox="0 0 841.9 595.3">
  <g fill="#61DAFB">
    <path d="M420.9 0C188.5 0 0 188.5 0 420.9s188.5 420.9 420.9 420.9 420.9-188.5 420.9-420.9S653.3 0 420.9 0zm0 780.3c-198.6 0-359.4-161-359.4-359.4S222.3 61.5 420.9 61.5 780.3 222.3 780.3 420.9 619.5 780.3 420.9 780.3z"/>
    <path d="M420.9 173.5c-136.7 0-248.4 111.7-248.4 248.4s111.7 248.4 248.4 248.4 248.4-111.7 248.4-248.4-111.7-248.4-248.4-248.4zm0 440.6c-105.5 0-191.8-86.3-191.8-191.8s86.3-191.8 191.8-191.8 191.8 86.3 191.8 191.8-86.3 191.8-191.8 191.8z"/>
    <path d="M420.9 261.5c-88.4 0-160.5 72.1-160.5 160.5s72.1 160.5 160.5 160.5 160.5-72.1 160.5-160.5-72.1-160.5-160.5-160.5zm0 288.4c-70.5 0-127.9-57.4-127.9-127.9s57.4-127.9 127.9-127.9 127.9 57.4 127.9 127.9-57.4 127.9-127.9 127.9z"/>
  </g>
</svg>